# xmcd CD database file
#
# Track frame offsets:
#	150
#	18890
#	31926
#	51472
#	64520
#	79893
#	98284
#	109668
#	120581
#	133430
#
# Disc length: 2078 seconds
#
# Revision: 0
# Processed by: cddbd v1.5.2PL0 Copyright (c) Steve Scherf et al.
# Submitted via: NeoAudio 9.9.9
#
DISCID=7b081c0a
DTITLE=Glynn Abbott - My BLues Side
DYEAR=2006
DGENRE=Blues
TTITLE0=The Blue Side of Me
TTITLE1=Back to School Blues
TTITLE2=Mom's Love
TTITLE3=Bedroom Cookin' Queen
TTITLE4=Cover My Heart
TTITLE5=Nobody to Hold Her
TTITLE6=WHy Couldn't You Wait
TTITLE7=Super Model
TTITLE8=Old Rock and Roller
TTITLE9=Unseen Uniform
EXTD=YEAR: 2006
EXTT0=
EXTT1=
EXTT2=
EXTT3=
EXTT4=
EXTT5=
EXTT6=
EXTT7=
EXTT8=
EXTT9=
PLAYORDER=
